<?xml version="1.0" encoding="UTF-8" standalone="no"?>
<!-- Created with Inkscape (http://www.inkscape.org/) -->

<svg
   version="1.1"
   id="svg1"
   width="320"
   height="320"
   viewBox="0 0 320 320"
   xmlns:xlink="http://www.w3.org/1999/xlink"
   xmlns="http://www.w3.org/2000/svg"
   xmlns:svg="http://www.w3.org/2000/svg">
  <defs
     id="defs1">
    <linearGradient
       id="linearGradient1">
      <stop
         style="stop-color:#ff8d09;stop-opacity:1;"
         offset="0"
         id="stop1" />
      <stop
         style="stop-color:#ffffff;stop-opacity:1;"
         offset="1"
         id="stop2" />
    </linearGradient>
    <linearGradient
       xlink:href="#linearGradient1"
       id="linearGradient2"
       x1="169.32413"
       y1="39.281235"
       x2="169.32413"
       y2="281.82141"
       gradientUnits="userSpaceOnUse" />
  </defs>
  <g
     id="g1">
    <path
       style="fill:url(#linearGradient2)"
       d="m 118.85013,306.31881 c -1.01392,-0.38305 -1.82237,-2.13043 -1.8408,-3.9787 l -0.016,-1.6 -3.52,0.0457 c -4.15832,0.054 -5.57774,0.50122 -9.05759,2.8539 -3.79361,2.5648 -3.82992,2.58264 -4.45523,2.18832 -0.82858,-0.5225 -1.187553,-2.50386 -0.82051,-4.52884 0.24293,-1.34026 0.22224,-1.77248 -0.09058,-1.89252 -0.565284,-0.21692 -6.319748,0.49895 -7.946702,0.98859 -1.733572,0.52173 -4.624868,2.37824 -6.641393,4.26447 -1.273882,1.19156 -1.699681,1.42436 -2.130075,1.16456 -0.859475,-0.51882 -1.977947,-3.02532 -1.977673,-4.43197 5.95e-4,-3.045 3.074536,-7.11316 6.972535,-9.2277 2.921546,-1.58485 5.372743,-1.89017 14.218208,-1.77104 7.56682,0.1019 7.93775,0.0787 8.5258,-0.53346 0.33814,-0.352 1.87847,-2.728 3.42297,-5.28 11.92891,-19.7104 18.39484,-30.5656 19.32855,-32.44936 l 1.0951,-2.20936 -0.72368,-2.07356 c -0.39802,-1.14046 -1.46319,-3.57207 -2.36704,-5.40357 l -1.64337,-3.33001 -3.53466,-1.9538 c -1.94407,-1.07459 -4.32667,-2.38878 -5.29467,-2.92044 -2.91715,-1.60218 -5.73228,-3.41726 -9.44,-6.08653 -4.52309,-3.25627 -6.23112,-4.69788 -10.67286,-9.00809 -14.934121,-14.49189 -23.491445,-30.15119 -27.555733,-50.42505 -2.164777,-10.79855 -2.157812,-25.7047 0.01719,-36.78023 1.314034,-6.69133 3.903296,-15.32857 5.945998,-19.83462 0.59973,-1.32296 1.47655,-3.26938 1.94849,-4.32538 0.47194,-1.056 2.738603,-5.664 5.037028,-10.240001 2.298426,-4.576 4.575358,-9.544 5.059851,-11.04 C 94.019159,76.230699 92.702663,67.862768 86.801338,61.761804 83.794244,58.652982 80.713757,57.541236 72.03337,56.432051 65.714326,55.6246 58.00968,55.2101 52.595636,55.386326 c -4.897564,0.159415 -5.220011,-0.02081 -3.820599,-2.135467 0.953505,-1.440843 2.80827,-2.989248 5.498333,-4.590148 1.993586,-1.186415 6.592248,-3.440602 7.019012,-3.440602 0.134346,0 0.698028,-0.202061 1.252627,-0.449024 3.247592,-1.446157 9.711461,-3.348546 13.088361,-3.852052 3.68139,-0.548907 3.196543,-0.159854 5.138771,-4.123474 5.588137,-11.404043 15.660833,-19.011696 28.541229,-21.55647 2.14512,-0.42381 4.43141,-0.569411 8.96,-0.57061 6.27886,-0.0017 8.03756,0.22769 13.86482,1.808122 13.40176,3.634737 24.57451,14.083979 29.3651,27.463508 2.63721,7.365386 3.54694,12.460049 4.45703,24.96 0.93841,12.889028 1.8145,18.314107 3.41836,21.167798 0.93431,1.662377 0.56422,2.000457 -1.66621,1.522114 -1.06197,-0.22775 -3.42163,-0.307436 -6.21548,-0.209895 -6.38769,0.223011 -11.83964,1.521223 -17.46362,4.158421 -5.35433,2.510752 -8.49289,4.680763 -12.6868,8.771693 -4.26691,4.16213 -6.81975,7.72275 -9.80379,13.67399 -8.35833,16.66948 -7.23276,39.2905 2.86339,57.54695 3.23048,5.84152 5.82521,9.3777 11.3975,15.53284 6.26726,6.92279 11.33395,11.13535 21.3497,17.75062 6.71057,4.43224 17.87357,10.22753 25.44,13.20722 5.29052,2.08342 16.71397,6.13446 19.96901,7.0815 6.85552,1.99458 23.36736,5.81879 32.99099,7.64084 3.432,0.64979 6.55608,1.33079 6.9424,1.51333 0.82855,0.39149 20.69501,21.1501 30.55066,31.92258 13.86524,15.15508 15.16737,16.63092 16.2493,18.41704 2.17732,3.59446 1.59694,6.67442 -1.59474,8.46296 l -1.42762,0.8 h -18.24 c -17.00454,0 -18.37005,-0.041 -20.16,-0.60557 -4.36757,-1.37752 -7.20745,-4.00396 -16.99152,-15.71443 -7.05761,-8.44719 -14.24519,-17.16726 -17.27644,-20.96 -5.3666,-6.71476 -8.51402,-10.56053 -8.77468,-10.72163 -0.13655,-0.0844 -6.63582,-0.17284 -14.44282,-0.19654 l -14.19454,-0.0431 -0.19541,1.08064 c -0.35584,1.96782 -1.41895,3.87354 -7.51942,13.4793 -7.29115,11.48058 -9.31646,14.71823 -12.86211,20.56133 -1.49519,2.464 -2.98504,4.82342 -3.31079,5.24315 -1.2339,1.58991 -1.07599,1.63685 5.50643,1.63685 6.52879,0 9.82021,0.35365 12.00413,1.28979 3.20341,1.37314 5.89717,5.17224 5.89717,8.31698 0,1.92912 -0.69183,3.42711 -1.77255,3.838 -0.99747,0.37924 -1.52908,0.18166 -3.56508,-1.32503 -0.91169,-0.67468 -2.27969,-1.55363 -3.04,-1.95321 l -1.38237,-0.72653 -17.12,-0.0641 c -17.36391,-0.065 -21.60769,0.11792 -23.32353,1.00521 -0.52472,0.27135 -1.79159,1.26493 -2.81526,2.20796 -2.27799,2.09855 -2.92863,2.45558 -3.84445,2.1096 z m 23.11768,-16.15139 c 0.35994,-0.43636 1.38055,-2.05201 2.26801,-3.59035 0.88746,-1.53833 3.02378,-5.10096 4.74738,-7.91696 1.7236,-2.816 4.3198,-7.136 5.76934,-9.6 1.44953,-2.464 4.10063,-6.928 5.89133,-9.92 1.7907,-2.992 3.3444,-5.7915 3.45268,-6.2211 0.22594,-0.89644 -0.38993,-3.50866 -0.96473,-4.0919 -0.21302,-0.21615 -2.18532,-0.76436 -4.38288,-1.21824 -2.19756,-0.45388 -5.72357,-1.26272 -7.83557,-1.79742 -2.112,-0.5347 -4.45179,-1.12671 -5.19953,-1.31557 -0.74774,-0.18886 -1.41993,-0.28297 -1.49376,-0.20914 -0.0738,0.0738 0.07,0.92142 0.31953,1.88354 0.24957,0.96212 0.45376,2.20996 0.45376,2.77299 0,1.24199 -1.44357,4.02223 -4.58392,8.82838 -1.29678,1.98465 -4.0508,6.34446 -6.12005,9.68846 -2.06925,3.344 -4.88636,7.808 -6.26025,9.92 -3.40282,5.23095 -8.29591,13.37315 -8.16465,13.58614 0.0589,0.0956 4.90903,0.13351 10.77801,0.0842 l 10.67086,-0.0897 z M 115.17411,48.510679 c 4.47976,-3.600414 3.12509,-10.460759 -2.26288,-11.459716 -2.81088,-0.521151 -5.9704,0.832065 -7.59786,3.254154 -0.65665,0.977259 -0.79978,1.576587 -0.79879,3.344596 0.001,1.930906 0.10403,2.281192 0.99393,3.382193 1.26654,1.566988 2.59706,2.340556 4.51822,2.6269 2.14239,0.31932 3.77448,-0.04472 5.14738,-1.148127 z M 250.43337,229.96142 c -6.89486,-2.03422 -10.95121,-3.46177 -14.49734,-5.10205 -9.36186,-4.33037 -16.73932,-8.27364 -23.74266,-12.6905 -1.848,-1.1655 -4.008,-2.50948 -4.8,-2.98663 -0.792,-0.47716 -4.68,-3.17639 -8.64,-5.99831 -12.08754,-8.61364 -20.82839,-15.89525 -28,-23.32552 -2.464,-2.55288 -4.984,-4.94631 -5.6,-5.31875 -2.38754,-1.44352 -4.8,-0.37564 -4.8,2.12473 0,2.42441 3.57665,7.14759 10.60963,14.01064 8.12414,7.92785 15.23247,13.53638 26.83037,21.16936 2.552,1.67956 5.648,3.73231 6.88,4.56167 2.50055,1.68333 8.94493,5.45013 9.34314,5.46117 0.14127,0.004 0.61686,0.28871 1.05686,0.63288 l 0.8,0.62577 -0.78735,0.007 c -1.63275,0.0148 -16.89864,-4.64926 -23.85265,-7.28743 -26.12982,-9.91299 -44.59125,-23.30352 -55.89969,-40.54545 -6.10952,-9.31515 -9.02665,-18.1405 -9.8241,-29.72137 -1.09409,-15.88875 4.75165,-30.05236 15.80379,-38.29093 10.08645,-7.518731 24.9319,-9.884111 33.83316,-5.39077 9.22581,4.65717 23.53566,21.22761 35.92684,41.60235 4.34826,7.14982 5.34614,8.84326 9.12213,15.48072 2.93839,5.16512 12.98081,24.70656 15.62267,30.4 1.225,2.64 3.00632,6.456 3.95849,8.48 3.95837,8.41429 4.36064,9.69182 2.72216,8.64512 -0.388,-0.24787 -4.44662,-2.60041 -9.01917,-5.22788 -4.57254,-2.62747 -9.39654,-5.50231 -10.72,-6.38853 -7.63127,-5.11008 -14.63542,-10.47005 -20.84287,-15.95012 -1.86813,-1.64923 -5.10813,-4.5126 -7.2,-6.36307 -4.91401,-4.3469 -5.56767,-4.79552 -6.98735,-4.79552 -1.19844,0 -2.73946,1.11954 -2.73293,1.98545 0.006,0.81233 1.53075,3.64619 3.02486,5.62238 1.97274,2.60926 9.1809,9.8652 12.65201,12.73589 15.15993,12.53759 20.49109,16.04989 37.66404,24.81394 4.54078,2.31734 8.50777,4.51687 8.81555,4.88784 0.99461,1.19885 2.37616,3.82047 3.73352,7.08473 0.72952,1.75437 1.46601,3.43982 1.63664,3.74543 0.43816,0.78474 0.38533,1.85059 -0.0897,1.81102 -0.22,-0.0183 -1.12,-0.24574 -2,-0.50537 z"
       id="path1" />
  </g>
</svg>
